<svg width="15" height="15" viewBox="0 0 15 15" fill="none" xmlns="http://www.w3.org/2000/svg">
<path d="M11.4174 2.59037C11.2535 2.59037 11.0933 2.63897 10.957 2.73004C10.8207 2.8211 10.7145 2.95053 10.6518 3.10196C10.589 3.25341 10.5727 3.42004 10.6046 3.5808C10.6366 3.74156 10.7155 3.88923 10.8314 4.00514C10.9473 4.12103 11.095 4.19997 11.2557 4.23195C11.4165 4.26392 11.5832 4.24751 11.7346 4.18478C11.886 4.12205 12.0154 4.01584 12.1065 3.87954C12.1976 3.74326 12.2462 3.58303 12.2462 3.41912C12.2462 3.19932 12.1589 2.98853 12.0034 2.8331C11.848 2.67768 11.6372 2.59037 11.4174 2.59037ZM14.5943 4.26168C14.5809 3.68866 14.4736 3.12174 14.2766 2.58346C14.101 2.12291 13.8277 1.70587 13.4755 1.36106C13.1335 1.00706 12.7155 0.735469 12.2531 0.566837C11.7162 0.363905 11.1486 0.254128 10.5749 0.242243C9.8428 0.200806 9.60799 0.200806 7.72949 0.200806C5.85099 0.200806 5.61618 0.200806 4.88412 0.242243C4.31031 0.254128 3.74275 0.363905 3.2059 0.566837C2.74434 0.737182 2.32669 1.00853 1.98349 1.36106C1.6295 1.70303 1.35791 2.12105 1.18927 2.58346C0.986341 3.12032 0.876565 3.68787 0.86468 4.26168C0.823242 4.99374 0.823242 5.22856 0.823242 7.10706C0.823242 8.98556 0.823242 9.22037 0.86468 9.95243C0.876565 10.5262 0.986341 11.0938 1.18927 11.6306C1.35791 12.0931 1.6295 12.5111 1.98349 12.8531C2.32669 13.2056 2.74434 13.4769 3.2059 13.6473C3.74275 13.8502 4.31031 13.96 4.88412 13.9719C5.61618 14.0133 5.85099 14.0133 7.72949 14.0133C9.60799 14.0133 9.8428 14.0133 10.5749 13.9719C11.1486 13.96 11.7162 13.8502 12.2531 13.6473C12.7155 13.4787 13.1335 13.207 13.4755 12.8531C13.8293 12.5095 14.1029 12.0921 14.2766 11.6306C14.4736 11.0923 14.5809 10.5255 14.5943 9.95243C14.5943 9.22037 14.6357 8.98556 14.6357 7.10706C14.6357 5.22856 14.6357 4.99374 14.5943 4.26168ZM13.3512 9.86956C13.3461 10.308 13.2667 10.7423 13.1164 11.1541C13.0061 11.4547 12.829 11.7262 12.5984 11.9483C12.3744 12.1766 12.1034 12.3533 11.8042 12.4663C11.3924 12.6167 10.958 12.6961 10.5196 12.7011C9.82899 12.7356 9.57346 12.7426 7.75712 12.7426C5.94077 12.7426 5.68524 12.7426 4.99462 12.7011C4.53942 12.7097 4.08617 12.6395 3.6548 12.4939C3.36874 12.3752 3.11015 12.1989 2.89512 11.976C2.66589 11.7541 2.49099 11.4823 2.38405 11.1817C2.21544 10.7641 2.12192 10.3198 2.1078 9.86956C2.1078 9.17893 2.06637 8.9234 2.06637 7.10706C2.06637 5.29071 2.06637 5.03518 2.1078 4.34456C2.1109 3.89638 2.19271 3.45223 2.34952 3.03237C2.47111 2.74086 2.65773 2.48101 2.89512 2.27268C3.10494 2.03523 3.36425 1.84663 3.6548 1.72018C4.07577 1.56827 4.51947 1.48888 4.96699 1.48537C5.65762 1.48537 5.91315 1.44393 7.72949 1.44393C9.54584 1.44393 9.80137 1.44393 10.492 1.48537C10.9304 1.4904 11.3648 1.56979 11.7766 1.72018C12.0904 1.83666 12.3721 2.02603 12.5984 2.27268C12.8247 2.48482 13.0015 2.74419 13.1164 3.03237C13.2699 3.45291 13.3493 3.89687 13.3512 4.34456C13.3857 5.03518 13.3926 5.29071 13.3926 7.10706C13.3926 8.9234 13.3857 9.17893 13.3512 9.86956ZM7.72949 3.56415C7.02907 3.56551 6.34476 3.77446 5.76304 4.16459C5.18133 4.55472 4.72829 5.10853 4.46121 5.75602C4.19411 6.40352 4.12493 7.11567 4.26242 7.80247C4.3999 8.48926 4.73787 9.11991 5.23363 9.61467C5.72939 10.1095 6.36068 10.4463 7.04774 10.5824C7.73482 10.7186 8.44682 10.6479 9.0938 10.3796C9.74078 10.1113 10.2937 9.65712 10.6827 9.07469C11.0717 8.49219 11.2793 7.80748 11.2793 7.10706C11.2802 6.64096 11.189 6.17928 11.0108 5.74857C10.8327 5.31786 10.5711 4.92662 10.2413 4.59736C9.91131 4.2681 9.51956 4.00731 9.0885 3.82999C8.65744 3.65268 8.19559 3.56233 7.72949 3.56415ZM7.72949 9.40684C7.27464 9.40684 6.83 9.27194 6.4518 9.01926C6.0736 8.76655 5.77884 8.40737 5.60477 7.98714C5.43071 7.56691 5.38516 7.10451 5.4739 6.65839C5.56264 6.21227 5.78167 5.80249 6.1033 5.48086C6.42493 5.15924 6.83471 4.94021 7.28083 4.85147C7.72694 4.76272 8.18935 4.80827 8.60958 4.98233C9.02981 5.1564 9.38899 5.45117 9.6417 5.82936C9.89437 6.20757 10.0293 6.6522 10.0293 7.10706C10.0293 7.40907 9.96979 7.70812 9.85422 7.98714C9.73866 8.26616 9.56923 8.5197 9.35568 8.73325C9.14213 8.9468 8.8886 9.11622 8.60958 9.23179C8.33056 9.34735 8.03151 9.40684 7.72949 9.40684Z" fill="black"/>
</svg>
