<svg width="150" height="42" viewBox="0 0 150 42" fill="none" xmlns="http://www.w3.org/2000/svg">
<path d="M28.2881 20.9985C25.6576 23.9521 21.835 25.8111 17.5803 25.8111C13.3256 25.8111 9.50289 23.9521 6.87241 20.9985C9.50289 18.0448 13.3256 16.186 17.5803 16.186C21.835 16.186 25.6576 18.0448 28.2881 20.9985Z" fill="white"/>
<path fill-rule="evenodd" clip-rule="evenodd" d="M3.21436 30.6235C3.21436 22.6499 9.64616 16.186 17.5802 16.186C13.3255 16.186 9.50286 18.0448 6.87237 20.9985C9.50286 23.9521 13.3255 25.8111 17.5802 25.8111C21.8349 25.8111 25.6576 23.9521 28.288 20.9985C30.5628 23.5528 31.946 26.9259 31.946 30.6235V36.0777C31.946 36.7864 31.3743 37.361 30.6691 37.361H4.49132C3.78607 37.361 3.21436 36.7864 3.21436 36.0777V30.6235Z" fill="#7CD4FD"/>
<path fill-rule="evenodd" clip-rule="evenodd" d="M12.1918 24.7606C10.1405 23.9258 8.32472 22.6287 6.87237 20.998C9.50286 18.0443 13.3255 16.1855 17.5802 16.1855C21.8349 16.1855 25.6576 18.0443 28.288 20.998C30.5628 18.4437 31.946 15.0707 31.946 11.373V5.91883C31.946 5.21007 31.3743 4.6355 30.6691 4.6355H4.49132C3.78607 4.6355 3.21436 5.21006 3.21436 5.91883V11.373C3.21436 17.4315 6.92764 22.6184 12.1918 24.7606Z" fill="#4C89B9"/>
<path d="M54.3848 13.9006V28.4364H51.4838V22.2514H45.2881V28.4364H42.3871V13.9006H45.2881V19.8773H51.4838V13.9006H54.3848Z" fill="#4C89B9"/>
<path d="M62.3378 28.6237C61.2327 28.6237 60.238 28.3809 59.354 27.8949C58.4698 27.3951 57.7722 26.6941 57.2611 25.7916C56.7637 24.8892 56.5151 23.8479 56.5151 22.6678C56.5151 21.4877 56.7707 20.4466 57.2817 19.5441C57.8067 18.6417 58.5182 17.9476 59.4161 17.4616C60.3141 16.9618 61.3156 16.7119 62.4207 16.7119C63.5259 16.7119 64.5275 16.9618 65.4254 17.4616C66.3233 17.9476 67.0279 18.6417 67.539 19.5441C68.064 20.4466 68.3265 21.4877 68.3265 22.6678C68.3265 23.8479 68.057 24.8892 67.5183 25.7916C66.9933 26.6941 66.275 27.3951 65.3632 27.8949C64.4652 28.3809 63.4568 28.6237 62.3378 28.6237ZM62.3378 26.0832C62.8628 26.0832 63.3532 25.9582 63.8091 25.7083C64.2788 25.4446 64.6518 25.0557 64.9281 24.5421C65.2043 24.0284 65.3425 23.4037 65.3425 22.6678C65.3425 21.5711 65.0524 20.7311 64.4722 20.148C63.9058 19.551 63.2081 19.2525 62.3793 19.2525C61.5504 19.2525 60.8528 19.551 60.2865 20.148C59.7338 20.7311 59.4576 21.5711 59.4576 22.6678C59.4576 23.7647 59.727 24.6115 60.2657 25.2085C60.8183 25.7916 61.509 26.0832 62.3378 26.0832Z" fill="#4C89B9"/>
<path d="M81.292 16.9033V28.4403H78.3703V26.9826C77.9972 27.4824 77.5068 27.878 76.899 28.1696C76.305 28.4473 75.6557 28.5861 74.9511 28.5861C74.0533 28.5861 73.2589 28.3987 72.5682 28.0239C71.8774 27.6352 71.3317 27.0729 70.9311 26.337C70.5443 25.5873 70.351 24.6988 70.351 23.6714V16.9033H73.252V23.2549C73.252 24.1712 73.48 24.8792 73.9358 25.379C74.3917 25.865 75.0134 26.1079 75.8008 26.1079C76.602 26.1079 77.2306 25.865 77.6864 25.379C78.1423 24.8792 78.3703 24.1712 78.3703 23.2549V16.9033H81.292Z" fill="#4C89B9"/>
<path d="M87.0552 18.6919C87.4282 18.0811 87.9117 17.6021 88.5057 17.255C89.1135 16.9079 89.8043 16.7344 90.5779 16.7344V19.7956H89.8111C88.8995 19.7956 88.2087 20.0109 87.739 20.4412C87.2831 20.8716 87.0552 21.6213 87.0552 22.6903V28.438H84.1541V16.901H87.0552V18.6919Z" fill="#4C89B9"/>
<path d="M97.0286 16.7119C97.8849 16.7119 98.6378 16.8855 99.2871 17.2325C99.9364 17.5657 100.448 18.003 100.821 18.5445V16.8993H103.742V28.5197C103.742 29.5887 103.528 30.5397 103.1 31.3726C102.672 32.2196 102.029 32.886 101.173 33.3718C100.316 33.8716 99.2803 34.1215 98.0646 34.1215C96.4345 34.1215 95.0945 33.7398 94.0446 32.9762C93.0086 32.2126 92.4214 31.1714 92.2832 29.8524H95.1635C95.3156 30.3801 95.6402 30.7965 96.1375 31.1019C96.6486 31.4213 97.2633 31.581 97.9817 31.581C98.8244 31.581 99.5082 31.3241 100.033 30.8104C100.558 30.3106 100.821 29.547 100.821 28.5197V26.7287C100.448 27.2702 99.9296 27.7214 99.2664 28.0824C98.6172 28.4433 97.8712 28.6237 97.0286 28.6237C96.0615 28.6237 95.1773 28.3738 94.3761 27.874C93.5749 27.3742 92.9394 26.6732 92.4697 25.7708C92.0138 24.8545 91.7859 23.8062 91.7859 22.6261C91.7859 21.46 92.0138 20.4257 92.4697 19.5233C92.9394 18.6208 93.568 17.9267 94.3555 17.4407C95.1567 16.9549 96.0477 16.7119 97.0286 16.7119ZM100.821 22.6678C100.821 21.9598 100.682 21.3559 100.406 20.8561C100.13 20.3424 99.7568 19.9537 99.2871 19.6898C98.8175 19.4122 98.3132 19.2734 97.7745 19.2734C97.2358 19.2734 96.7384 19.4053 96.2825 19.669C95.8266 19.9328 95.4537 20.3216 95.1635 20.8353C94.8873 21.3351 94.7491 21.932 94.7491 22.6261C94.7491 23.3204 94.8873 23.9312 95.1635 24.4588C95.4537 24.9725 95.8266 25.3681 96.2825 25.6458C96.7522 25.9235 97.2495 26.0623 97.7745 26.0623C98.3132 26.0623 98.8175 25.9304 99.2871 25.6666C99.7568 25.389 100.13 25.0002 100.406 24.5004C100.682 23.9867 100.821 23.3758 100.821 22.6678Z" fill="#4C89B9"/>
<path d="M109.476 13.0278V28.4383H106.576V13.0278H109.476Z" fill="#4C89B9"/>
<path d="M111.597 22.6261C111.597 21.46 111.825 20.4257 112.28 19.5233C112.751 18.6208 113.378 17.9267 114.166 17.4407C114.967 16.9549 115.859 16.7119 116.839 16.7119C117.696 16.7119 118.442 16.8855 119.077 17.2325C119.727 17.5796 120.244 18.017 120.631 18.5445V16.8993H123.553V28.4363H120.631V26.7495C120.258 27.291 119.741 27.7422 119.077 28.1032C118.428 28.4503 117.675 28.6237 116.819 28.6237C115.851 28.6237 114.967 28.3738 114.166 27.874C113.378 27.3742 112.751 26.6732 112.28 25.7708C111.825 24.8545 111.597 23.8062 111.597 22.6261ZM120.631 22.6678C120.631 21.9598 120.494 21.3559 120.217 20.8561C119.941 20.3424 119.568 19.9537 119.098 19.6898C118.628 19.4122 118.124 19.2734 117.585 19.2734C117.047 19.2734 116.549 19.4053 116.093 19.669C115.638 19.9328 115.264 20.3216 114.975 20.8353C114.698 21.3351 114.56 21.932 114.56 22.6261C114.56 23.3204 114.698 23.9312 114.975 24.4588C115.264 24.9725 115.638 25.3681 116.093 25.6458C116.563 25.9235 117.061 26.0623 117.585 26.0623C118.124 26.0623 118.628 25.9304 119.098 25.6666C119.568 25.389 119.941 25.0002 120.217 24.5004C120.494 23.9867 120.631 23.3758 120.631 22.6678Z" fill="#4C89B9"/>
<path d="M130.78 28.6237C129.84 28.6237 128.998 28.4572 128.252 28.1239C127.505 27.7769 126.912 27.3118 126.469 26.7287C126.042 26.1456 125.806 25.5 125.765 24.792H128.687C128.742 25.2362 128.956 25.6042 129.329 25.8957C129.716 26.1872 130.192 26.3331 130.759 26.3331C131.311 26.3331 131.74 26.222 132.044 25.9998C132.361 25.7777 132.521 25.4931 132.521 25.146C132.521 24.7712 132.327 24.4935 131.94 24.313C131.567 24.1186 130.966 23.9104 130.138 23.6882C129.281 23.48 128.577 23.2649 128.024 23.0427C127.485 22.8206 127.016 22.4804 126.615 22.0223C126.228 21.5641 126.034 20.9464 126.034 20.1688C126.034 19.5302 126.214 18.9472 126.573 18.4195C126.946 17.892 127.471 17.4755 128.148 17.17C128.839 16.8646 129.647 16.7119 130.573 16.7119C131.94 16.7119 133.032 17.0589 133.846 17.7531C134.661 18.4334 135.11 19.3567 135.194 20.5229H132.417C132.375 20.0647 132.182 19.7038 131.836 19.4399C131.505 19.1623 131.056 19.0235 130.489 19.0235C129.964 19.0235 129.557 19.1206 129.267 19.315C128.99 19.5094 128.852 19.7801 128.852 20.1271C128.852 20.516 129.046 20.8144 129.433 21.0227C129.82 21.217 130.421 21.4183 131.236 21.6265C132.064 21.8349 132.748 22.05 133.287 22.2722C133.826 22.4943 134.288 22.8414 134.675 23.3134C135.076 23.7716 135.283 24.3825 135.297 25.146C135.297 25.8124 135.11 26.4094 134.737 26.9369C134.378 27.4645 133.853 27.8811 133.162 28.1864C132.485 28.478 131.691 28.6237 130.78 28.6237Z" fill="#4C89B9"/>
<path d="M142.072 28.6237C141.132 28.6237 140.29 28.4572 139.543 28.1239C138.797 27.7769 138.204 27.3118 137.761 26.7287C137.333 26.1456 137.098 25.5 137.057 24.792H139.979C140.034 25.2362 140.248 25.6042 140.621 25.8957C141.008 26.1872 141.484 26.3331 142.051 26.3331C142.603 26.3331 143.032 26.222 143.336 25.9998C143.653 25.7777 143.813 25.4931 143.813 25.146C143.813 24.7712 143.619 24.4935 143.232 24.313C142.859 24.1186 142.258 23.9104 141.429 23.6882C140.573 23.48 139.868 23.2649 139.316 23.0427C138.777 22.8206 138.307 22.4804 137.907 22.0223C137.52 21.5641 137.326 20.9464 137.326 20.1688C137.326 19.5302 137.506 18.9472 137.865 18.4195C138.238 17.892 138.763 17.4755 139.44 17.17C140.13 16.8646 140.939 16.7119 141.865 16.7119C143.232 16.7119 144.324 17.0589 145.138 17.7531C145.953 18.4334 146.402 19.3567 146.485 20.5229H143.709C143.667 20.0647 143.474 19.7038 143.128 19.4399C142.797 19.1623 142.348 19.0235 141.781 19.0235C141.256 19.0235 140.849 19.1206 140.559 19.315C140.282 19.5094 140.144 19.7801 140.144 20.1271C140.144 20.516 140.338 20.8144 140.725 21.0227C141.112 21.217 141.713 21.4183 142.527 21.6265C143.356 21.8349 144.04 22.05 144.579 22.2722C145.118 22.4943 145.581 22.8414 145.967 23.3134C146.368 23.7716 146.575 24.3825 146.589 25.146C146.589 25.8124 146.402 26.4094 146.029 26.9369C145.671 27.4645 145.146 27.8811 144.454 28.1864C143.777 28.478 142.983 28.6237 142.072 28.6237Z" fill="#4C89B9"/>
</svg>
