<svg width="150" height="42" viewBox="0 0 150 42" fill="none" xmlns="http://www.w3.org/2000/svg">
<path d="M15.1267 25.8142C20.6715 25.8142 25.1664 21.505 25.1664 16.1892C25.1664 10.8735 20.6715 6.56421 15.1267 6.56421H1.07117V25.8142H15.1267Z" fill="#80B021"/>
<path d="M1.07117 6.56421L25.1664 35.4392H9.10292L1.07117 25.8142V6.56421Z" fill="#80B021"/>
<path d="M16.9957 25.6478C16.3901 25.7571 15.7654 25.8142 15.1267 25.8142H1.07117V6.56421L16.9957 25.6478Z" fill="#A0CE45"/>
<path d="M41.6912 27.7459C40.2857 27.7459 39.0782 27.4764 38.0687 26.9374C37.0721 26.3862 36.3055 25.6144 35.7688 24.6222C35.2321 23.6177 34.9637 22.4356 34.9637 21.0758C34.9637 19.7161 35.2321 18.5401 35.7688 17.5478C36.3055 16.5556 37.0721 15.7899 38.0687 15.2509C39.0782 14.6997 40.2857 14.4241 41.6912 14.4241C42.5985 14.4241 43.4546 14.5588 44.2596 14.8283C45.0774 15.0979 45.7482 15.4837 46.2721 15.9859L45.4671 17.8602C44.8921 17.3947 44.3044 17.0578 43.7038 16.8496C43.1032 16.6291 42.458 16.5188 41.768 16.5188C40.4007 16.5188 39.3593 16.917 38.6438 17.7132C37.9282 18.4972 37.5704 19.6181 37.5704 21.0758C37.5704 22.5335 37.9282 23.6606 38.6438 24.4568C39.3593 25.253 40.4007 25.6512 41.768 25.6512C42.458 25.6512 43.1032 25.547 43.7038 25.3388C44.3044 25.1183 44.8921 24.7753 45.4671 24.3098L46.2721 26.1841C45.7482 26.6741 45.0774 27.06 44.2596 27.3417C43.4546 27.6112 42.5985 27.7459 41.6912 27.7459Z" fill="#80B021"/>
<path d="M51.7838 27.7477C50.8127 27.7477 49.9694 27.5578 49.2539 27.178C48.5383 26.7982 47.9824 26.2593 47.5863 25.561C47.1902 24.8505 46.9922 24.0175 46.9922 23.062C46.9922 22.1065 47.1902 21.2797 47.5863 20.5814C47.9824 19.8832 48.5383 19.3442 49.2539 18.9644C49.9694 18.5846 50.8127 18.3948 51.7838 18.3948C52.755 18.3948 53.5983 18.5846 54.3138 18.9644C55.0294 19.3442 55.5853 19.8832 55.9814 20.5814C56.3775 21.2797 56.5755 22.1065 56.5755 23.062C56.5755 24.0175 56.3775 24.8505 55.9814 25.561C55.5853 26.2593 55.0294 26.7982 54.3138 27.178C53.5983 27.5578 52.755 27.7477 51.7838 27.7477ZM51.7838 26.002C52.4994 26.002 53.0744 25.7571 53.5088 25.267C53.9433 24.7648 54.1605 24.0298 54.1605 23.062C54.1605 22.0821 53.9433 21.3532 53.5088 20.8754C53.0744 20.3854 52.4994 20.1404 51.7838 20.1404C51.0683 20.1404 50.4933 20.3854 50.0588 20.8754C49.6244 21.3532 49.4072 22.0821 49.4072 23.062C49.4072 24.0298 49.6244 24.7648 50.0588 25.267C50.4933 25.7571 51.0683 26.002 51.7838 26.002Z" fill="#80B021"/>
<path d="M58.5905 27.5639V18.5785H60.9288V19.9566C61.2099 19.4666 61.5997 19.0869 62.098 18.8174C62.5963 18.5357 63.1713 18.3948 63.823 18.3948C65.2286 18.3948 66.1485 18.9828 66.583 20.1588C66.8769 19.6075 67.2986 19.1788 67.848 18.8725C68.3975 18.5541 69.0236 18.3948 69.7263 18.3948C71.8347 18.3948 72.8888 19.6259 72.8888 22.0881V27.5639H70.493V22.18C70.493 21.4941 70.3716 20.9917 70.1288 20.6733C69.8988 20.3548 69.5027 20.1955 68.9405 20.1955C68.3144 20.1955 67.8224 20.4099 67.4647 20.8386C67.1069 21.2552 66.928 21.837 66.928 22.5843V27.5639H64.5322V22.18C64.5322 21.4941 64.4108 20.9917 64.168 20.6733C63.938 20.3548 63.5483 20.1955 62.9988 20.1955C62.3727 20.1955 61.8808 20.4099 61.523 20.8386C61.1652 21.2552 60.9863 21.837 60.9863 22.5843V27.5639H58.5905Z" fill="#80B021"/>
<path d="M75.3989 27.5639V18.5785H77.7372V19.9566C78.0184 19.4666 78.408 19.0869 78.9064 18.8174C79.4047 18.5357 79.9797 18.3948 80.6314 18.3948C82.037 18.3948 82.9569 18.9828 83.3914 20.1588C83.6852 19.6075 84.107 19.1788 84.6564 18.8725C85.2058 18.5541 85.832 18.3948 86.5347 18.3948C88.6431 18.3948 89.6972 19.6259 89.6972 22.0881V27.5639H87.3014V22.18C87.3014 21.4941 87.18 20.9917 86.9373 20.6733C86.7072 20.3548 86.3111 20.1955 85.7489 20.1955C85.1228 20.1955 84.6308 20.4099 84.273 20.8386C83.9153 21.2552 83.7364 21.837 83.7364 22.5843V27.5639H81.3405V22.18C81.3405 21.4941 81.2191 20.9917 80.9764 20.6733C80.7464 20.3548 80.3566 20.1955 79.8072 20.1955C79.1811 20.1955 78.6892 20.4099 78.3314 20.8386C77.9736 21.2552 77.7947 21.837 77.7947 22.5843V27.5639H75.3989Z" fill="#80B021"/>
<path d="M95.2544 27.7477C94.5771 27.7477 93.9702 27.6251 93.4336 27.3802C92.9097 27.1229 92.4944 26.7799 92.1877 26.3512C91.8938 25.9224 91.7468 25.4385 91.7468 24.8995C91.7468 24.238 91.9258 23.7174 92.2835 23.3377C92.6413 22.9457 93.2227 22.6639 94.0277 22.4924C94.8326 22.3209 95.9124 22.2352 97.2668 22.2352H97.9376V21.8493C97.9376 21.2368 97.7972 20.7958 97.516 20.5263C97.2349 20.2567 96.7622 20.122 96.0977 20.122C95.5738 20.122 95.0372 20.2016 94.4877 20.3609C93.9382 20.5079 93.3825 20.7407 92.8202 21.0592L92.1302 19.4973C92.4624 19.2768 92.8521 19.0869 93.2993 18.9277C93.7594 18.7562 94.2385 18.6276 94.7369 18.5418C95.2479 18.4438 95.7272 18.3948 96.1744 18.3948C97.5415 18.3948 98.5575 18.7011 99.2219 19.3135C99.8863 19.9138 100.219 20.8509 100.219 22.1249V27.5639H97.976V26.1307C97.7588 26.6329 97.4138 27.031 96.941 27.325C96.4683 27.6067 95.906 27.7477 95.2544 27.7477ZM95.7527 26.1674C96.3788 26.1674 96.8963 25.9592 97.3052 25.5427C97.7269 25.1261 97.9376 24.5994 97.9376 23.9624V23.5582H97.286C96.0849 23.5582 95.2479 23.65 94.7752 23.8338C94.3151 24.0052 94.0852 24.3238 94.0852 24.7893C94.0852 25.1935 94.2321 25.5243 94.526 25.7815C94.8199 26.0388 95.2288 26.1674 95.7527 26.1674Z" fill="#80B021"/>
<path d="M102.651 27.5639V18.5785H104.989V19.975C105.309 19.4605 105.737 19.0686 106.273 18.799C106.823 18.5295 107.437 18.3948 108.114 18.3948C110.324 18.3948 111.429 19.6259 111.429 22.0881V27.5639H109.033V22.1984C109.033 21.5001 108.893 20.9917 108.612 20.6733C108.343 20.3548 107.922 20.1955 107.347 20.1955C106.644 20.1955 106.082 20.4099 105.66 20.8386C105.251 21.2552 105.047 21.8125 105.047 22.5108V27.5639H102.651Z" fill="#80B021"/>
<path d="M117.466 27.7446C116.649 27.7446 115.927 27.5547 115.3 27.1749C114.687 26.7952 114.208 26.2562 113.863 25.5579C113.518 24.8474 113.346 24.0144 113.346 23.0589C113.346 22.0912 113.518 21.2643 113.863 20.5783C114.208 19.8801 114.687 19.3411 115.3 18.9613C115.927 18.5815 116.649 18.3917 117.466 18.3917C118.131 18.3917 118.731 18.5326 119.267 18.8143C119.804 19.096 120.207 19.4697 120.475 19.9352V14.6064H122.871V27.5608H120.533V26.0724C120.277 26.5869 119.875 26.9973 119.325 27.3036C118.776 27.5976 118.156 27.7446 117.466 27.7446ZM118.137 25.9989C118.853 25.9989 119.427 25.754 119.862 25.2639C120.296 24.7617 120.514 24.0267 120.514 23.0589C120.514 22.079 120.296 21.3501 119.862 20.8723C119.427 20.3823 118.853 20.1373 118.137 20.1373C117.421 20.1373 116.846 20.3823 116.412 20.8723C115.977 21.3501 115.761 22.079 115.761 23.0589C115.761 24.0267 115.977 24.7617 116.412 25.2639C116.846 25.754 117.421 25.9989 118.137 25.9989Z" fill="#80B021"/>
<path d="M128.977 26.8259V23.0958H125.182V21.4788H128.977V17.8589H130.741V21.4788H134.536V23.0958H130.741V26.8259H128.977Z" fill="#80B021"/>
<path d="M137.078 27.5608V14.6064H142.943C144.425 14.6064 145.569 14.9495 146.374 15.6354C147.178 16.3092 147.581 17.2585 147.581 18.4836C147.581 19.4514 147.32 20.2537 146.796 20.8907C146.272 21.5154 145.518 21.9381 144.534 22.1586C145.185 22.3546 145.722 22.8262 146.143 23.5734L148.405 27.5608H145.703L143.365 23.4264C143.135 23.0222 142.86 22.7466 142.54 22.5996C142.234 22.4526 141.837 22.3791 141.352 22.3791H139.531V27.5608H137.078ZM139.531 20.6334H142.521C144.31 20.6334 145.205 19.9352 145.205 18.5387C145.205 17.1545 144.31 16.4623 142.521 16.4623H139.531V20.6334Z" fill="#80B021"/>
</svg>
