<svg width="104" height="24" viewBox="0 0 104 24" fill="none" xmlns="http://www.w3.org/2000/svg">
<path d="M87.7775 23.2065L87.5205 0.119775L90.9978 0L90.907 9.10293C91.4614 8.50405 92.051 8.03493 92.6759 7.69557C93.3008 7.34622 93.8854 7.08172 94.4297 6.90206C95.0545 6.70243 95.6744 6.56768 96.2892 6.49782C98.5671 6.49782 100.391 7.27137 101.762 8.81846C102.427 9.56706 102.951 10.4803 103.334 11.5583C103.728 12.6263 103.949 13.8341 104 15.1815C104 15.8902 103.99 16.6138 103.969 17.3525C103.959 18.0911 103.929 18.8147 103.879 19.5234C103.818 20.2321 103.738 20.9058 103.637 21.5446C103.546 22.1834 103.42 22.7573 103.259 23.2664L99.8118 23.0268C100.104 22.0686 100.311 21.1354 100.432 20.2271C100.563 19.3188 100.653 18.5053 100.704 17.7866C100.744 16.9482 100.759 16.1497 100.749 15.3911C100.699 14.3231 100.512 13.4148 100.19 12.6662C99.8773 11.9177 99.4843 11.3038 99.0105 10.8247C98.5469 10.3556 98.0278 10.0162 97.4533 9.80661C96.8889 9.58702 96.3346 9.47723 95.7903 9.47723C95.2259 9.51715 94.6463 9.68185 94.0517 9.9713C93.5477 10.2109 93.0085 10.5852 92.434 11.0942C91.8595 11.5933 91.3253 12.3019 90.8315 13.2202L90.7407 23.1466L87.7775 23.2065Z" fill="black"/>
<path d="M84.4515 11.1541L84.4817 11.214L81.972 12.7261L81.9418 12.6363C81.4177 11.6182 80.6819 10.8197 79.7345 10.2408C78.7871 9.6519 77.7389 9.35746 76.5899 9.35746C75.7634 9.35746 74.9873 9.51217 74.2616 9.82159C73.546 10.131 72.9211 10.5552 72.3869 11.0942C71.8427 11.6332 71.4143 12.267 71.1019 12.9956C70.7894 13.7143 70.6332 14.4828 70.6332 15.3013C70.6332 16.1098 70.7894 16.8734 71.1019 17.592C71.4143 18.3107 71.8427 18.9395 72.3869 19.4785C72.9211 20.0175 73.546 20.4417 74.2616 20.7511C74.9873 21.0605 75.7634 21.2152 76.5899 21.2152C77.6381 21.2152 78.6309 20.9457 79.5682 20.4067C80.5055 19.8677 81.2363 19.1541 81.7604 18.2658L81.8209 18.1759L84.4515 19.6581L84.4212 19.748C84.0282 20.3968 83.5494 20.9807 82.985 21.4997C82.4306 22.0187 81.8108 22.4679 81.1254 22.8472C79.7244 23.6157 78.2126 24 76.5899 24C75.4509 24 74.3523 23.7804 73.294 23.3412C72.2357 22.9021 71.2883 22.2932 70.4518 21.5147C69.6253 20.7361 68.9601 19.8178 68.4561 18.7598C67.9522 17.7018 67.7002 16.549 67.7002 15.3013C67.7002 14.5527 67.806 13.8141 68.0177 13.0855C68.441 11.6082 69.1919 10.3256 70.2703 9.23768C70.5324 8.9582 70.8146 8.70368 71.117 8.47411C71.4193 8.23456 71.7318 8.01497 72.0543 7.81535C72.7095 7.42608 73.42 7.12165 74.186 6.90206C74.952 6.67249 75.7533 6.5577 76.5899 6.5577C78.3234 6.5577 79.8907 6.96195 81.2917 7.77043C82.6725 8.57892 83.7258 9.7068 84.4515 11.1541Z" fill="black"/>
<path d="M57.677 21.0655C58.7958 21.0655 59.8238 20.7361 60.7612 20.0774C61.6985 19.4086 62.3083 18.4803 62.5905 17.2926L65.5084 17.8765C65.2262 18.7848 64.828 19.6082 64.314 20.3468C63.8 21.0855 63.2003 21.7193 62.5149 22.2483C61.8295 22.7773 61.0736 23.1865 60.2471 23.476C59.4307 23.7654 58.574 23.9102 57.677 23.9102C56.3466 23.9102 55.1673 23.7105 54.1393 23.3113C53.1112 22.912 52.2444 22.3481 51.5389 21.6195C50.0976 20.1322 49.377 18.106 49.377 15.5409C49.377 14.2932 49.5886 13.1304 50.0119 12.0524C50.4453 10.9644 51.0349 10.0212 51.7808 9.2227C52.5266 8.4242 53.4035 7.79538 54.4114 7.33624C55.4193 6.8771 56.5078 6.64753 57.677 6.64753C58.7252 6.64753 59.713 6.85215 60.6402 7.26138C61.5675 7.66063 62.3889 8.21459 63.1045 8.92327C63.8201 9.64192 64.4098 10.4853 64.8734 11.4535C65.337 12.4217 65.6293 13.4697 65.7503 14.5976L52.6577 16.529C52.7282 17.2377 52.9046 17.8765 53.1868 18.4454C53.4791 19.0044 53.8419 19.4785 54.2753 19.8677C55.1724 20.6662 56.3063 21.0655 57.677 21.0655ZM52.7484 13.7592L61.8497 12.6662L61.759 12.3818C61.376 11.3936 60.8468 10.6201 60.1715 10.0611C59.5063 9.50218 58.6748 9.2227 57.677 9.2227C57.2537 9.2227 56.79 9.29756 56.2861 9.44728C55.7821 9.58702 55.2933 9.83156 54.8196 10.1809C54.3459 10.5303 53.9175 10.9994 53.5345 11.5883C53.1616 12.1672 52.8996 12.8908 52.7484 13.7592Z" fill="black"/>
<path d="M31.1894 4.35683L31.1289 1.19776L48.5907 0.82346L48.5303 3.6831L41.4699 3.95259L41.6816 22.8472L38.3404 22.9071V4.07237L31.1894 4.35683Z" fill="black"/>
<path d="M29.0578 2.48534C29.0578 3.06426 28.8411 3.56332 28.4077 3.98254C27.9844 4.39177 27.4754 4.59639 26.8807 4.59639C26.2961 4.59639 25.7922 4.39177 25.3689 3.98254C24.9556 3.56332 24.749 3.06426 24.749 2.48534C24.749 1.89645 24.9556 1.39239 25.3689 0.97318C25.7922 0.543985 26.2961 0.329388 26.8807 0.329388C27.4754 0.329388 27.9844 0.543985 28.4077 0.97318C28.8411 1.39239 29.0578 1.89645 29.0578 2.48534ZM25.2177 7.87524L28.3472 7.75546L28.196 14.942C28.1456 16.9183 28.1154 18.4704 28.1053 19.5983C28.0751 20.9757 28.06 22.0586 28.06 22.8472H24.9607C24.9708 22.3082 24.9808 21.7193 24.9909 21.0805C25.0111 20.4317 25.0262 19.738 25.0363 18.9994C25.0564 17.7118 25.0867 16.1497 25.127 14.3132L25.2177 7.87524Z" fill="black"/>
<path d="M0 1.03306L3.19 0.883343L3.31095 12.8759L16.6303 12.2321L16.4791 1.10792L19.8506 1.34747L20.032 21.9189L16.7815 22.1734L16.6908 15.0168L3.34118 15.6007L3.44701 22.3231L0.287251 22.4429L0 1.03306Z" fill="black"/>
</svg>
