<svg width="150" height="42" viewBox="0 0 150 42" fill="none" xmlns="http://www.w3.org/2000/svg">
<path d="M24.7958 28.0124C31.3894 28.0124 36.7346 22.7797 36.7346 16.3248C36.7346 15.5933 36.6659 14.8774 36.5345 14.1831C35.8254 14.0545 35.0941 13.9873 34.3468 13.9873C27.7532 13.9873 22.4081 19.22 22.4081 25.6749C22.4081 26.4064 22.4767 27.1222 22.608 27.8165C23.3173 27.9451 24.0485 28.0124 24.7958 28.0124Z" fill="#EF99AE"/>
<path fill-rule="evenodd" clip-rule="evenodd" d="M22.6084 27.8147C17.0595 26.8087 12.8573 22.0463 12.8573 16.323C12.8573 9.86816 18.2024 4.6355 24.7961 4.6355C30.6424 4.6355 35.5073 8.7493 36.5348 14.1813C35.8256 14.0527 35.0944 13.9854 34.347 13.9854C27.7535 13.9854 22.4083 19.2181 22.4083 25.673C22.4083 26.4045 22.477 27.1204 22.6084 27.8147Z" fill="#D71343"/>
<path fill-rule="evenodd" clip-rule="evenodd" d="M24.7962 28.0108C31.3898 28.0108 36.7349 22.7781 36.7349 16.3233C36.7349 15.5918 36.6662 14.8759 36.5349 14.1816C42.0837 15.1875 46.286 19.95 46.286 25.6734C46.286 32.1281 40.9408 37.3608 34.3471 37.3608C28.5009 37.3608 23.636 33.247 22.6085 27.8151C23.3176 27.9436 24.0489 28.0108 24.7962 28.0108Z" fill="#D71343"/>
<path d="M64.1776 28.6164C68.2574 28.6164 71.1976 26.3628 71.4939 23.0159H68.0751C67.8016 24.6224 66.2289 25.7157 64.1776 25.7157C61.6021 25.7157 59.6193 23.9754 59.6193 20.6285C59.6193 17.2816 61.6021 15.5189 64.1776 15.5189C66.1834 15.5189 67.756 16.6122 67.9839 18.241H71.5624C71.1293 14.8719 68.1891 12.6406 64.1776 12.6406C59.9155 12.6406 56.1776 15.3628 56.1776 20.6285C56.1776 25.8942 59.8471 28.6164 64.1776 28.6164Z" fill="#D71343"/>
<path d="M77.8389 17.0134C74.6936 17.0134 72.8246 18.8207 72.6879 21.0743H75.5141C75.5597 20.1372 76.2662 19.2893 77.6566 19.2893C78.9557 19.2893 79.7079 19.9363 79.7079 20.8734C79.7079 21.3421 79.4116 21.6991 78.8417 21.6991H76.9045C74.3973 21.6991 72.7107 23.0378 72.7107 25.2467C72.7107 27.1656 74.2378 28.6159 76.4714 28.6159C78.044 28.6159 79.3204 27.9242 79.7079 26.8756V28.4374H82.8532V21.2082C82.8532 18.6646 80.7335 17.0134 77.8389 17.0134ZM77.2691 26.3623C76.3802 26.3623 75.7421 25.8492 75.7421 25.1128C75.7421 24.2427 76.4258 23.6626 77.3831 23.6626H79.7079V23.8187C79.7079 25.2467 78.819 26.3623 77.2691 26.3623Z" fill="#D71343"/>
<path d="M84.9822 32.9892H88.1503V27.4333C88.7658 28.1919 89.8825 28.6159 91.1817 28.6159C94.4866 28.6159 96.7203 26.3177 96.7203 22.8147C96.7203 19.3116 94.6689 17.0134 91.4553 17.0134C89.9737 17.0134 88.8341 17.5489 88.1503 18.4191V17.1919H84.9822V32.9892ZM90.7943 25.9384C89.0849 25.9384 87.968 24.6889 87.968 22.8147C87.968 20.9181 89.0849 19.6686 90.7943 19.6686C92.4581 19.6686 93.5977 20.9181 93.5977 22.8147C93.5977 24.6889 92.4581 25.9384 90.7943 25.9384Z" fill="#D71343"/>
<path d="M102.298 28.6159C104.988 28.6159 106.766 27.2102 106.766 25.0682C106.766 19.9809 100.475 22.5916 100.475 20.2933C100.475 19.5793 101.09 19.2001 101.979 19.2001C102.845 19.2001 103.734 19.7132 103.871 20.6727H106.629C106.515 18.4637 104.646 17.0134 101.888 17.0134C99.5406 17.0134 97.7856 18.4191 97.7856 20.4049C97.7856 25.1352 103.962 22.8816 103.962 25.1798C103.962 25.8046 103.278 26.2731 102.298 26.2731C101.113 26.2731 100.315 25.6483 100.202 24.6443H97.4664C97.5804 27.0763 99.4949 28.6159 102.298 28.6159Z" fill="#D71343"/>
<path d="M119.279 17.1909H116.088V23.3492C116.088 24.7772 115.108 25.8482 113.717 25.8482C112.418 25.8482 111.507 24.8664 111.507 23.5053V17.1909H108.338V24.197C108.338 26.7629 110.025 28.6149 112.601 28.6149C114.173 28.6149 115.449 27.9455 116.088 26.8745V28.4364H119.279V17.1909Z" fill="#D71343"/>
<path d="M121.558 28.4391H124.726V12.3071H121.558V28.4391Z" fill="#D71343"/>
<path d="M134.683 24.6219C134.432 25.5814 133.589 26.0723 132.313 26.0723C130.717 26.0723 129.691 25.0906 129.463 23.5063H137.714C137.737 23.2609 137.76 22.9262 137.76 22.5023C137.76 19.9363 136.141 17.0134 132.085 17.0134C128.187 17.0134 126.409 19.9363 126.409 22.7923C126.409 25.6261 128.415 28.6159 132.313 28.6159C135.138 28.6159 137.327 27.0541 137.783 24.6219H134.683ZM132.085 19.2893C133.612 19.2893 134.501 20.2933 134.592 21.5428H129.509C129.782 19.9809 130.649 19.2893 132.085 19.2893Z" fill="#D71343"/>
</svg>
