<svg width="18" height="18" viewBox="0 0 18 18" fill="none" xmlns="http://www.w3.org/2000/svg">
<path d="M3 10.125V9.75C3 6.02208 5.68629 3 9 3C12.3137 3 15 6.02208 15 9.75V10.125" stroke="black" stroke-linecap="round" stroke-linejoin="round"/>
<path d="M1.5 13.0789V11.6712C1.5 10.9829 1.96844 10.3829 2.6362 10.216L3 10.125L3.94086 9.88982C4.22487 9.81881 4.5 10.0336 4.5 10.3264V14.4237C4.5 14.7164 4.22487 14.9313 3.94086 14.8602L2.6362 14.5341C1.96845 14.3671 1.5 13.7672 1.5 13.0789Z" stroke="black" stroke-linecap="round" stroke-linejoin="round"/>
<path d="M16.5 13.0789V11.6712C16.5 10.9829 16.0316 10.3829 15.3638 10.216L15 10.125L14.0591 9.88982C13.7751 9.81881 13.5 10.0336 13.5 10.3264V14.4237C13.5 14.7164 13.7751 14.9313 14.0591 14.8602L15.3638 14.5341C16.0316 14.3671 16.5 13.7672 16.5 13.0789Z" stroke="black" stroke-linecap="round" stroke-linejoin="round"/>
</svg>
