<svg width="14" height="10" viewBox="0 0 14 10" fill="none" xmlns="http://www.w3.org/2000/svg">
<path d="M13.2966 2.36028C13.2966 2.36028 13.1711 1.47149 12.7848 1.08122C12.2956 0.567589 11.7487 0.565071 11.4979 0.534857C9.70167 0.403931 7.00481 0.403931 7.00481 0.403931H6.99979C6.99979 0.403931 4.30296 0.403931 2.50674 0.534857C2.25588 0.565071 1.70898 0.567589 1.21979 1.08122C0.833455 1.47149 0.710529 2.36028 0.710529 2.36028C0.710529 2.36028 0.580078 3.40517 0.580078 4.44755V5.42446C0.580078 6.46684 0.708021 7.51174 0.708021 7.51174C0.708021 7.51174 0.833455 8.4005 1.21728 8.79075C1.70648 9.30445 2.3487 9.28677 2.63469 9.34215C3.66324 9.44038 7.0023 9.4706 7.0023 9.4706C7.0023 9.4706 9.70167 9.46554 11.4979 9.33717C11.7487 9.30694 12.2956 9.30445 12.7848 8.79075C13.1711 8.4005 13.2966 7.51174 13.2966 7.51174C13.2966 7.51174 13.4245 6.46936 13.4245 5.42446V4.44755C13.4245 3.40517 13.2966 2.36028 13.2966 2.36028ZM5.67521 6.61035V2.98721L9.14468 4.80508L5.67521 6.61035Z" fill="black"/>
</svg>
