<svg width="483" height="192" viewBox="0 0 483 192" fill="none" xmlns="http://www.w3.org/2000/svg">
<path d="M334.057 123.872L333.959 123.957V124.067L333.648 124.685H333.959V147.152V147.652H334.459H420.763V188.127V188.627H421.263H461.407H461.907V188.127V147.652H482H482.5V147.152V112.441V111.941H482H461.907V74.0759V73.5759H461.407H421.263H420.763V74.0759V111.941H384.58L439.955 4.09866L440.329 3.37027H439.51H394.935H394.627L394.488 3.64572L334.057 123.872Z" stroke="black"/>
<path d="M173.426 145.799L173.43 145.806C180.416 160.145 189.943 171.352 202.015 179.409C214.09 187.469 227.568 191.499 242.436 191.499C257.474 191.499 270.867 187.558 282.598 179.669L282.6 179.668C294.497 171.61 303.85 160.403 310.661 146.065C317.651 131.718 321.138 115.025 321.138 95.9994C321.138 76.9738 317.651 60.2807 310.661 45.9334C303.85 31.596 294.497 20.475 282.598 12.5902C270.693 4.52795 257.127 0.5 241.915 0.5C226.875 0.5 213.396 4.52858 201.493 12.5901C189.593 20.4753 180.239 31.5969 173.428 45.9355C166.612 60.109 163.213 76.7146 163.213 95.7384C163.213 114.59 166.613 131.281 173.426 145.799ZM274.288 128.196L274.286 128.201C271.354 136.834 267.143 143.356 261.675 147.806C256.21 152.079 249.718 154.222 242.175 154.222C234.637 154.222 228.058 151.995 222.416 147.545C216.947 143.096 212.736 136.574 209.804 127.94C206.873 119.308 205.399 108.579 205.399 95.7384C205.399 82.8975 206.873 72.1684 209.804 63.5368C212.736 54.9035 216.946 48.4723 222.409 44.198C228.052 39.9183 234.548 37.7772 241.915 37.7772C249.631 37.7772 256.208 40.0063 261.671 44.4508L261.671 44.4509L261.679 44.4567C267.143 48.731 271.354 55.1629 274.286 63.7978L274.286 63.7978L274.289 63.8062C277.392 72.4348 278.952 83.1608 278.952 95.9994C278.952 108.663 277.392 119.39 274.288 128.196Z" stroke="black"/>
<path d="M1.59774 123.872L1.5 123.957V124.067L1.18907 124.685H1.5V147.152V147.652H2H88.3041V188.127V188.627H88.8041H128.948H129.448V188.127V147.652H149.541H150.041V147.152V112.441V111.941H149.541H129.448V74.0759V73.5759H128.948H88.8041H88.3041V74.0759V111.941H52.1211L107.496 4.09869L107.87 3.3703H107.051H62.4762H62.1679L62.0294 3.64575L1.59774 123.872Z" stroke="black"/>
</svg>
