<svg width="150" height="42" viewBox="0 0 150 42" fill="none" xmlns="http://www.w3.org/2000/svg">
<path d="M43.6897 21.1862C43.6897 29.3478 36.9129 35.9737 28.5413 35.9737C20.1696 35.9737 13.3928 29.3478 13.3928 21.1862C13.3928 13.0245 20.1696 6.39868 28.5413 6.39868C36.9129 6.39868 43.6897 13.0245 43.6897 21.1862Z" stroke="#592814" stroke-width="3"/>
<path d="M34.4038 26.9097C31.2999 29.9408 27.7995 31.9025 24.713 32.6775C21.5859 33.4628 19.1993 32.9785 17.8316 31.6429C16.4639 30.3073 15.968 27.9768 16.7721 24.923C17.5658 21.9089 19.5746 18.4905 22.6785 15.4595C25.7824 12.4285 29.2828 10.4667 32.3694 9.69166C35.4965 8.90642 37.8831 9.39072 39.2508 10.7263C40.6183 12.0619 41.1143 14.3925 40.3102 17.4462C39.5165 20.4603 37.5078 23.8786 34.4038 26.9097Z" stroke="#592814" stroke-width="3"/>
<path d="M34.4036 15.4595C37.5075 18.4906 39.5164 21.9088 40.3101 24.9231C41.1142 27.9767 40.6182 30.3074 39.2505 31.643C37.8829 32.9785 35.4962 33.4628 32.3693 32.6775C29.2826 31.9025 25.7822 29.9408 22.6783 26.9097C19.5745 23.8786 17.5657 20.4604 16.772 17.4462C15.9679 14.3925 16.4638 12.0618 17.8314 10.7263C19.1991 9.39073 21.5857 8.90641 24.7127 9.69166C27.7993 10.4667 31.2998 12.4284 34.4036 15.4595Z" stroke="#592814" stroke-width="3"/>
<path d="M59.6531 28.6164C63.2403 28.6164 65.6623 26.7867 65.6623 23.8638C65.6623 17.6832 57.2539 20.3161 57.2539 17.0585C57.2539 16.1436 58.0994 15.5189 59.4475 15.5189C60.9783 15.5189 61.9379 16.3221 62.0522 17.5494H65.3195C65.2281 14.5818 62.8976 12.6406 59.4475 12.6406C56.203 12.6406 53.918 14.4702 53.918 17.0585C53.918 23.1944 62.2121 20.8516 62.2121 23.9084C62.2121 25.091 61.1839 25.7157 59.6531 25.7157C57.9622 25.7157 56.8883 24.7116 56.7513 23.1275H53.4611C53.5982 26.452 56.0202 28.6164 59.6531 28.6164Z" fill="#592814"/>
<path d="M66.4401 32.9892H69.616V27.4333C70.2329 28.1919 71.3525 28.6159 72.6549 28.6159C75.9678 28.6159 78.207 26.3177 78.207 22.8147C78.207 19.3116 76.1506 17.0134 72.9291 17.0134C71.4439 17.0134 70.3015 17.5489 69.616 18.4191V17.1919H66.4401V32.9892ZM72.2664 25.9384C70.5527 25.9384 69.4332 24.6889 69.4332 22.8147C69.4332 20.9181 70.5527 19.6686 72.2664 19.6686C73.9344 19.6686 75.0767 20.9181 75.0767 22.8147C75.0767 24.6889 73.9344 25.9384 72.2664 25.9384Z" fill="#592814"/>
<path d="M78.9751 28.4391H82.1511V22.2809C82.1511 20.8305 83.1335 19.7819 84.5273 19.7819C85.8526 19.7819 86.7665 20.7636 86.7665 22.1246V28.4391H89.9425V21.433C89.9425 18.8447 88.2516 17.0151 85.6698 17.0151C84.0704 17.0151 82.8137 17.6621 82.1511 18.7555V12.3071H78.9751V28.4391Z" fill="#592814"/>
<path d="M98.8272 24.6219C98.5759 25.5814 97.7305 26.0723 96.451 26.0723C94.8516 26.0723 93.8234 25.0906 93.5949 23.5063H101.866C101.889 23.2609 101.912 22.9262 101.912 22.5023C101.912 19.9363 100.29 17.0134 96.2225 17.0134C92.3154 17.0134 90.5332 19.9363 90.5332 22.7923C90.5332 25.6261 92.5438 28.6159 96.451 28.6159C99.2842 28.6159 101.478 27.0541 101.935 24.6219H98.8272ZM96.2225 19.2893C97.7533 19.2893 98.6444 20.2933 98.7358 21.5428H93.6406C93.9148 19.9809 94.783 19.2893 96.2225 19.2893Z" fill="#592814"/>
<path d="M110.241 19.7787V17.1904H108.602C107.209 17.1904 106.34 17.6589 105.724 19.0647V17.1904H102.525V28.4359H105.724V22.9693C105.724 21.0504 106.432 19.7787 108.008 19.7787H110.241Z" fill="#592814"/>
<path d="M121.208 17.1904H118.009V23.3487C118.009 24.7767 117.026 25.8477 115.632 25.8477C114.331 25.8477 113.417 24.8659 113.417 23.5048V17.1904H110.24V24.1966C110.24 26.7624 111.931 28.6144 114.513 28.6144C116.09 28.6144 117.369 27.9451 118.009 26.8741V28.4359H121.208V17.1904Z" fill="#592814"/>
<path d="M122.579 28.4391H125.755V12.3071H122.579V28.4391Z" fill="#592814"/>
<path d="M134.822 24.6219C134.57 25.5814 133.725 26.0723 132.446 26.0723C130.846 26.0723 129.819 25.0906 129.59 23.5063H137.861C137.884 23.2609 137.907 22.9262 137.907 22.5023C137.907 19.9363 136.285 17.0134 132.218 17.0134C128.31 17.0134 126.528 19.9363 126.528 22.7923C126.528 25.6261 128.539 28.6159 132.446 28.6159C135.28 28.6159 137.473 27.0541 137.929 24.6219H134.822ZM132.218 19.2893C133.749 19.2893 134.639 20.2933 134.731 21.5428H129.635C129.91 19.9809 130.778 19.2893 132.218 19.2893Z" fill="#592814"/>
</svg>
