<svg width="150" height="42" viewBox="0 0 150 42" fill="none" xmlns="http://www.w3.org/2000/svg">
<path d="M21.4811 17.8149C25.6783 15.8862 28.9632 12.6134 30.849 8.5223C29.6323 7.29498 28.0507 6.41832 26.3476 5.89232L25.4351 5.6001C25.3743 5.71698 25.3134 5.89232 25.3134 6.00922C23.8535 9.98341 20.8729 13.1978 16.8581 15.0096C14.06 16.2954 11.9918 18.6331 11.0185 21.4384L10.7144 22.3151C10.836 22.3735 11.0185 22.432 11.1401 22.432C12.2959 22.8411 13.4516 23.367 14.5466 24.0099C16.0673 21.38 18.5005 19.1592 21.4811 17.8149Z" fill="#1A5B2A"/>
<path d="M39.1216 18.0515C36.871 21.3244 33.7687 23.9543 29.9364 25.7077C26.8341 27.1103 24.4618 29.7403 23.3668 32.8963L23.0626 33.8898C24.2185 34.8833 25.6176 35.6431 27.1382 36.1107L28.0507 36.4029C28.1115 36.286 28.1724 36.1107 28.1724 35.9938C29.6323 32.0197 32.6129 28.8052 36.6277 26.9934C39.4258 25.7077 41.5548 23.3699 42.4673 20.5646L42.7714 19.6879C41.494 19.3372 40.2774 18.7528 39.1216 18.0515Z" fill="#1A5B2A"/>
<path d="M20.6295 30.8475C22.1502 27.3408 24.9483 24.4771 28.5373 22.8406C31.8221 21.3211 34.5595 18.9834 36.4452 16.1196C35.0461 14.8337 33.8904 13.3727 33.0387 11.6194C30.7881 15.5935 27.26 18.808 22.941 20.7951C20.4471 21.9055 18.4396 23.8341 17.223 26.172C18.5613 27.3993 19.6562 28.9188 20.5078 30.6137C20.5078 30.6137 20.5687 30.7305 20.6295 30.8475Z" fill="#1A5B2A"/>
<path d="M50.0208 28.0018H60.2717V25.2718H53.3212V13.3018H50.0208V28.0018Z" fill="#1A5B2A"/>
<path d="M70.9817 17.4141H67.9217V23.2101C67.9217 24.5541 66.9818 25.5621 65.6485 25.5621C64.4027 25.5621 63.5284 24.6381 63.5284 23.3571V17.4141H60.4902V24.0081C60.4902 26.4231 62.1077 28.1661 64.5775 28.1661C66.0857 28.1661 67.3097 27.5361 67.9217 26.5281V27.9981H70.9817V17.4141Z" fill="#1A5B2A"/>
<path d="M72.1183 28.0015H75.1783V21.9955C75.1783 20.6305 75.987 19.7275 77.2547 19.7275C78.435 19.7275 79.1781 20.6305 79.1781 21.9955V28.0015H82.2381V21.9955C82.2381 20.6305 83.0469 19.7275 84.3146 19.7275C85.4949 19.7275 86.2599 20.6305 86.2599 21.9955V28.0015H89.298V21.0715C89.298 18.9505 87.7461 17.2495 85.3419 17.2495C83.5714 17.2495 82.1944 18.1525 81.6699 19.1815C81.1453 17.9215 80.0306 17.2495 78.3039 17.2495C76.8176 17.2495 75.7684 17.9425 75.1783 18.9085V17.4175H72.1183V28.0015Z" fill="#1A5B2A"/>
<path d="M90.3406 12.8157V15.9027H93.5754V12.8157H90.3406ZM90.428 27.9987H93.488V17.4147H90.428V27.9987Z" fill="#1A5B2A"/>
<path d="M94.6285 28.0015H97.6885V22.2055C97.6885 20.8405 98.6284 19.8535 99.9617 19.8535C101.229 19.8535 102.082 20.7775 102.082 22.0585V28.0015H105.142V21.4075C105.142 18.9715 103.524 17.2495 101.033 17.2495C99.5245 17.2495 98.3005 17.8585 97.6885 18.8875V17.4175H94.6285V28.0015Z" fill="#1A5B2A"/>
<path d="M111.524 28.1695C114.912 28.1695 117.339 25.8595 117.339 22.7095C117.339 19.5595 114.912 17.2495 111.524 17.2495C108.136 17.2495 105.71 19.5595 105.71 22.7095C105.71 25.8595 108.136 28.1695 111.524 28.1695ZM111.524 25.6495C109.885 25.6495 108.77 24.4525 108.77 22.7095C108.77 20.9455 109.885 19.7485 111.524 19.7485C113.163 19.7485 114.279 20.9455 114.279 22.7095C114.279 24.4525 113.163 25.6495 111.524 25.6495Z" fill="#1A5B2A"/>
<path d="M128.42 17.4141H125.36V23.2101C125.36 24.5541 124.421 25.5621 123.088 25.5621C121.842 25.5621 120.968 24.6381 120.968 23.3571V17.4141H117.929V24.0081C117.929 26.4231 119.547 28.1661 122.016 28.1661C123.525 28.1661 124.749 27.5361 125.36 26.5281V27.9981H128.42V17.4141Z" fill="#1A5B2A"/>
<path d="M133.579 28.1695C136.158 28.1695 137.863 26.8465 137.863 24.8305C137.863 20.0425 131.831 22.4995 131.831 20.3365C131.831 19.6645 132.421 19.3075 133.273 19.3075C134.103 19.3075 134.956 19.7905 135.087 20.6935H137.732C137.623 18.6145 135.83 17.2495 133.186 17.2495C130.934 17.2495 129.252 18.5725 129.252 20.4415C129.252 24.8935 135.175 22.7725 135.175 24.9355C135.175 25.5235 134.519 25.9645 133.579 25.9645C132.443 25.9645 131.678 25.3765 131.568 24.4315H128.945C129.055 26.7205 130.891 28.1695 133.579 28.1695Z" fill="#1A5B2A"/>
</svg>
