<svg width="10" height="16" viewBox="0 0 10 16" fill="none" xmlns="http://www.w3.org/2000/svg">
<path d="M5.37904 6.55232H8.77903L8.40126 8.06343H5.37904V14.8634H3.86792V8.06343H0.845703V6.55232H3.86792V5.13792C3.86792 3.79076 4.00846 3.30192 4.27139 2.80929C4.52904 2.32257 4.92707 1.92455 5.41379 1.66689C5.90641 1.40396 6.39526 1.26343 7.74241 1.26343C8.13681 1.26343 8.48286 1.30121 8.77903 1.37676V2.77454H7.74241C6.74206 2.77454 6.43757 2.83347 6.12704 2.99969C5.89735 3.12209 5.72659 3.29285 5.60419 3.52254C5.43797 3.83307 5.37904 4.13756 5.37904 5.13792V6.55232Z" fill="black" stroke="black" stroke-width="0.8"/>
</svg>
