<svg width="150" height="42" viewBox="0 0 150 42" fill="none" xmlns="http://www.w3.org/2000/svg">
<path fill-rule="evenodd" clip-rule="evenodd" d="M27.4405 5.71346C27.0679 5.6362 26.6836 5.6362 26.3109 5.71346C25.8802 5.80275 25.4952 6.02013 25.1891 6.19293L25.1057 6.23992L14.7325 12.0492C14.7038 12.0653 14.6742 12.0816 14.6439 12.0985C14.3199 12.2784 13.9126 12.5046 13.5997 12.8468C13.3293 13.1427 13.1246 13.4934 12.9994 13.8754C12.8545 14.3172 12.8562 14.786 12.8576 15.159C12.8577 15.1937 12.8579 15.2278 12.8579 15.2608V26.7309C12.8579 26.764 12.8577 26.798 12.8576 26.8329C12.8562 27.2057 12.8545 27.6746 12.9994 28.1164C13.1246 28.4985 13.3293 28.8491 13.5997 29.145C13.9126 29.4872 14.32 29.7134 14.6439 29.8933C14.6742 29.9101 14.7038 29.9265 14.7325 29.9426L25.1057 35.7519L25.1891 35.7988C25.4952 35.9717 25.8802 36.189 26.3109 36.2784C26.6836 36.3555 27.0679 36.3555 27.4405 36.2784C27.8712 36.189 28.2562 35.9717 28.5623 35.7988L28.6457 35.7519L39.0189 29.9426C39.0316 29.9355 39.0444 29.9283 39.0575 29.921C39.0739 29.9119 39.0905 29.9027 39.1074 29.8933C39.4314 29.7134 39.8388 29.4872 40.1516 29.145C40.4222 28.8491 40.6268 28.4985 40.7521 28.1164C40.8969 27.6746 40.8952 27.2057 40.8938 26.8329C40.8937 26.798 40.8936 26.764 40.8936 26.7309V15.2608C40.8936 15.2278 40.8937 15.1938 40.8938 15.159C40.8952 14.786 40.8969 14.3172 40.7521 13.8754C40.6268 13.4934 40.4222 13.1427 40.1516 12.8468C39.8388 12.5046 39.4314 12.2784 39.1074 12.0985L39.1062 12.0978C39.0765 12.0812 39.0472 12.065 39.0189 12.0492L28.6457 6.23992L28.5623 6.19293C28.2562 6.02013 27.8712 5.80275 27.4405 5.71346ZM26.4672 8.71041C26.6797 8.59145 26.7881 8.53134 26.869 8.492L26.8757 8.48877L26.8824 8.492C26.9633 8.53134 27.0717 8.59145 27.2842 8.71041L36.6053 13.9305L26.8757 19.3793L17.1461 13.9305L26.4672 8.71041ZM15.6615 16.332L25.4739 21.8273V32.7251L16.094 27.4721C15.8699 27.3465 15.7553 27.2818 15.675 27.2301L15.6682 27.2258L15.6677 27.2177C15.662 27.1218 15.6615 26.9895 15.6615 26.7309V16.332Z" fill="#015694"/>
<path d="M53.6516 25.7187H58.1138V28.3694H50.2451V14.2725H53.6516V25.7187Z" fill="#015694"/>
<path d="M61.2528 16.0011C60.6551 16.0011 60.1638 15.8272 59.7786 15.4791C59.4068 15.1176 59.2208 14.6758 59.2208 14.1537C59.2208 13.6182 59.4068 13.1764 59.7786 12.8284C60.1638 12.4668 60.6551 12.2861 61.2528 12.2861C61.8371 12.2861 62.3152 12.4668 62.6871 12.8284C63.0723 13.1764 63.2648 13.6182 63.2648 14.1537C63.2648 14.6758 63.0723 15.1176 62.6871 15.4791C62.3152 15.8272 61.8371 16.0011 61.2528 16.0011ZM62.9461 17.1659V28.3712H59.5396V17.1659H62.9461Z" fill="#015694"/>
<path d="M69.4386 17.0034C70.2222 17.0034 70.9062 17.1641 71.4905 17.4854C72.0882 17.8067 72.5463 18.2283 72.8651 18.7504V17.1641H76.2715V28.3493C76.2715 29.3801 76.0656 30.3106 75.654 31.1406C75.2555 31.984 74.638 32.6534 73.8013 33.1488C72.9779 33.644 71.9487 33.8917 70.7136 33.8917C69.0668 33.8917 67.7321 33.4968 66.7095 32.7069C65.6869 31.9304 65.1026 30.8729 64.9564 29.5341H68.3231C68.4294 29.9625 68.6817 30.2972 69.08 30.5381C69.4785 30.7925 69.9699 30.9197 70.5542 30.9197C71.2581 30.9197 71.8159 30.7122 72.2276 30.2972C72.6526 29.8955 72.8651 29.2462 72.8651 28.3493V26.7629C72.533 27.285 72.0749 27.7134 71.4905 28.0481C70.9062 28.3694 70.2222 28.53 69.4386 28.53C68.5222 28.53 67.6922 28.2958 66.9485 27.8271C66.2049 27.3452 65.6139 26.6692 65.1755 25.799C64.7506 24.9154 64.5381 23.8979 64.5381 22.7466C64.5381 21.5953 64.7506 20.5845 65.1755 19.7143C65.6139 18.8442 66.2049 18.1748 66.9485 17.7062C67.6922 17.2377 68.5222 17.0034 69.4386 17.0034ZM72.8651 22.7667C72.8651 21.9099 72.626 21.2339 72.1479 20.7385C71.6831 20.2432 71.112 19.9955 70.4346 19.9955C69.7574 19.9955 69.1797 20.2432 68.7016 20.7385C68.2367 21.2204 68.0043 21.8898 68.0043 22.7466C68.0043 23.6034 68.2367 24.2862 68.7016 24.7949C69.1797 25.2902 69.7574 25.5379 70.4346 25.5379C71.112 25.5379 71.6831 25.2902 72.1479 24.7949C72.626 24.2996 72.8651 23.6235 72.8651 22.7667Z" fill="#015694"/>
<path d="M85.3696 17.045C86.6445 17.045 87.6672 17.4734 88.4374 18.3302C89.2077 19.1737 89.5929 20.3384 89.5929 21.8244V28.3709H86.2063V22.2862C86.2063 21.5365 86.0138 20.9542 85.6286 20.5392C85.2434 20.1242 84.7255 19.9167 84.0748 19.9167C83.424 19.9167 82.9061 20.1242 82.5209 20.5392C82.1358 20.9542 81.9432 21.5365 81.9432 22.2862V28.3709H78.5367V13.5107H81.9432V18.6716C82.2885 18.1763 82.7599 17.7814 83.3576 17.4869C83.9552 17.1924 84.6259 17.045 85.3696 17.045Z" fill="#015694"/>
<path d="M97.9557 25.4587V28.3704H96.2226C94.9875 28.3704 94.0247 28.0692 93.3341 27.4668C92.6435 26.851 92.2982 25.8536 92.2982 24.4747V20.0166H90.9436V17.1651H92.2982V14.4341H95.7047V17.1651H97.9359V20.0166H95.7047V24.5148C95.7047 24.8496 95.7843 25.0905 95.9437 25.2377C96.1031 25.3851 96.3687 25.4587 96.7406 25.4587H97.9557Z" fill="#015694"/>
<path d="M103.061 18.7519C103.379 18.2299 103.838 17.8082 104.435 17.4869C105.033 17.1656 105.717 17.0049 106.487 17.0049C107.403 17.0049 108.234 17.2392 108.977 17.7077C109.721 18.1763 110.306 18.8457 110.73 19.7158C111.168 20.5861 111.388 21.5968 111.388 22.7481C111.388 23.8994 111.168 24.9169 110.73 25.8005C110.306 26.6707 109.721 27.3467 108.977 27.8286C108.234 28.2973 107.403 28.5315 106.487 28.5315C105.703 28.5315 105.019 28.3776 104.435 28.0696C103.851 27.7483 103.393 27.3266 103.061 26.8046V28.3709H99.6542V13.5107H103.061V18.7519ZM107.922 22.7481C107.922 21.8913 107.682 21.2219 107.204 20.74C106.739 20.2447 106.162 19.997 105.471 19.997C104.794 19.997 104.216 20.2447 103.738 20.74C103.273 21.2354 103.041 21.9114 103.041 22.7682C103.041 23.625 103.273 24.3011 103.738 24.7965C104.216 25.2917 104.794 25.5394 105.471 25.5394C106.148 25.5394 106.726 25.2917 107.204 24.7965C107.682 24.2877 107.922 23.6049 107.922 22.7481Z" fill="#015694"/>
<path d="M118.035 28.53C116.946 28.53 115.964 28.2957 115.088 27.8271C114.224 27.3586 113.54 26.6892 113.036 25.819C112.544 24.9489 112.299 23.9314 112.299 22.7667C112.299 21.6153 112.55 20.6046 113.055 19.7345C113.56 18.8509 114.251 18.1748 115.127 17.7062C116.004 17.2377 116.986 17.0034 118.076 17.0034C119.164 17.0034 120.147 17.2377 121.023 17.7062C121.9 18.1748 122.591 18.8509 123.095 19.7345C123.6 20.6046 123.852 21.6153 123.852 22.7667C123.852 23.918 123.594 24.9354 123.075 25.819C122.57 26.6892 121.874 27.3586 120.984 27.8271C120.107 28.2957 119.125 28.53 118.035 28.53ZM118.035 25.558C118.686 25.558 119.237 25.317 119.689 24.8351C120.153 24.3531 120.386 23.6637 120.386 22.7667C120.386 21.8697 120.161 21.1803 119.709 20.6984C119.27 20.2164 118.726 19.9754 118.076 19.9754C117.411 19.9754 116.86 20.2164 116.421 20.6984C115.983 21.1669 115.765 21.8563 115.765 22.7667C115.765 23.6637 115.977 24.3531 116.402 24.8351C116.84 25.317 117.385 25.558 118.035 25.558Z" fill="#015694"/>
<path d="M132.034 28.3703L129.902 25.2577L128.109 28.3703H124.424L128.09 22.6472L124.324 17.165H128.149L130.281 20.2575L132.074 17.165H135.759L132.034 22.8078L135.859 28.3703H132.034Z" fill="#015694"/>
</svg>
